<!-- Generator: Adobe Illustrator 18.0.0, SVG Export Plug-In  -->
<svg version="1.1"
	 xmlns="http://www.w3.org/2000/svg" xmlns:xlink="http://www.w3.org/1999/xlink" xmlns:a="http://ns.adobe.com/AdobeSVGViewerExtensions/3.0/"
	 x="0px" y="0px" width="119.1px" height="13.9px" viewBox="0 0 119.1 13.9" enable-background="new 0 0 119.1 13.9"
	 xml:space="preserve">
<defs>
</defs>
<g>
	<path fill="#0658A3" d="M27.6,11.8c-1.2,0-2.3-0.5-3.1-1.4c-0.8-0.9-1.2-2-1.2-3.3c0-1.3,0.4-2.4,1.2-3.2c0.8-1,1.9-1.5,3.1-1.5
		c0.4,0,0.9,0.1,1.3,0.2c0.3-0.1,0.6-0.1,0.9-0.1c1,0,1.9,0.5,2.3,1.4c0.2,0.4,0.3,0.8,0.3,1.4v3.7c0,0.6-0.1,1-0.2,1.4c0,0,0,0,0,0
		c-0.4,0.9-1.3,1.4-2.3,1.4c-0.4,0-0.7-0.1-0.9-0.2C28.5,11.7,28.1,11.8,27.6,11.8"/>
	<path fill="#0658A3" d="M74.1,11.8c-1.2,0-2.3-0.5-3.1-1.4c-0.8-0.9-1.2-2-1.2-3.3c0-1.3,0.4-2.4,1.2-3.2c0.8-1,1.9-1.5,3.1-1.5
		c0.4,0,0.9,0.1,1.3,0.2c0.3-0.1,0.6-0.1,0.9-0.1c1,0,1.9,0.5,2.3,1.4c0.2,0.4,0.3,0.8,0.3,1.4v3.7c0,0.6-0.1,1-0.2,1.4c0,0,0,0,0,0
		c-0.4,0.9-1.3,1.4-2.3,1.4c-0.4,0-0.7-0.1-0.9-0.2C74.9,11.7,74.5,11.8,74.1,11.8"/>
	<g>
		<path fill="#0658A3" d="M4.4,11.7H2.6c-0.6,0-1.2-0.2-1.6-0.5c-0.6-0.5-1-1.2-1-2.1V3.3c0-0.7,0.3-1.4,0.8-1.9
			c0.5-0.5,1.1-0.8,1.9-0.8h1.7c2.1,0,3.3,0.9,4,1.6c1,1,1.5,2.4,1.5,4c0,1.6-0.5,2.9-1.5,3.9C7.3,11.1,6,11.7,4.4,11.7"/>
		<path fill="#0658A3" d="M9.4,13.6c-0.7,0-1.3-0.3-1.8-0.8c-0.5-0.5-0.8-1.1-0.8-1.8c0-0.3,0.1-0.6,0.2-0.9
			C6.9,9.8,6.8,9.5,6.8,9.1v-4C6.8,4.7,6.9,4.3,7,4C6.9,3.7,6.8,3.4,6.8,3c0-0.7,0.3-1.3,0.8-1.8c0.5-0.5,1.1-0.8,1.8-0.8
			c0.7,0,1.3,0.3,1.8,0.8C11.7,1.7,12,2.3,12,3c0,0.4-0.1,0.7-0.2,1.1c0.1,0.3,0.2,0.7,0.2,1v4c0,0.3-0.1,0.7-0.2,1
			c0.1,0.3,0.2,0.6,0.2,1c0,0.7-0.3,1.3-0.8,1.8C10.8,13.3,10.1,13.6,9.4,13.6"/>
		<path fill="#0658A3" d="M13.2,11.8c-1.2,0-2.3-0.4-3-1.1C9.3,10,8.9,9,8.9,7.8V5.1c0-0.7,0.2-1.3,0.7-1.8c0.5-0.5,1.2-0.8,1.9-0.8
			c0.6,0,1.2,0.2,1.7,0.6c0.5-0.4,1.1-0.6,1.7-0.6c0.7,0,1.4,0.3,1.9,0.8c0.4,0.5,0.7,1.1,0.7,1.8v2.7c0,1.2-0.4,2.2-1.2,2.9
			C15.4,11.4,14.4,11.8,13.2,11.8"/>
		<path fill="#0658A3" d="M21.8,11.8c-1.3,0-2.4-0.5-3.2-1.6c-0.7-0.9-1.1-1.9-1.1-3.1c0-1.2,0.3-2.2,0.9-3.1c0.7-1,1.7-1.6,2.9-1.7
			c0.1-0.6,0.3-1.1,0.7-1.5C22.5,0.3,23.2,0,23.9,0c0.7,0,1.4,0.3,1.9,0.8c0.4,0.5,0.7,1.1,0.7,1.8v6.4c0,0.7-0.2,1.3-0.7,1.8
			c-0.5,0.5-1.2,0.8-1.9,0.8c-0.3,0-0.6-0.1-0.9-0.1C22.6,11.7,22.2,11.8,21.8,11.8"/>
		<path fill="#0658A3" d="M28.5,5.5c-0.2,0-0.4,0-0.6-0.1c-0.1,0-0.2-0.1-0.3-0.1c0,0-0.1,0-0.1,0c0,0,0,0-0.1,0l-1.1-0.4
			c-1-0.4-1.6-1.3-1.6-2.3c0-0.6,0.2-1.1,0.6-1.6C25.7,0.3,26.3,0,27,0c0.4,0,0.7,0.1,1.1,0.2l1.2,0.5c0,0,0.1,0,0.1,0.1l0.1,0
			c0,0,0.1,0,0.1,0c0.8,0.4,1.2,1.2,1.2,2c0,0.6-0.2,1.1-0.5,1.5C29.9,5.1,29.3,5.5,28.5,5.5"/>
		<path fill="#0658A3" d="M35.5,11.7c-0.6,0-1.2-0.2-1.7-0.6c-0.5,0.4-1.1,0.6-1.7,0.6c-0.7,0-1.4-0.3-1.9-0.8
			c-0.4-0.5-0.7-1.1-0.7-1.8v-4c0-0.7,0.2-1.3,0.7-1.8c0.5-0.5,1.2-0.8,1.9-0.8c0.3,0,0.6,0,0.8,0.1c0.4-0.1,0.8-0.2,1.3-0.2
			c1.1,0,2,0.4,2.7,1c0.5,0.5,1.1,1.4,1.1,2.8v2.9c0,0.7-0.2,1.3-0.7,1.8C36.9,11.4,36.3,11.7,35.5,11.7"/>
		<path fill="#0658A3" d="M39.2,13.9c-0.7,0-1.3-0.1-2-0.3c-2-0.7-2.2-2-2.2-2.6c0-0.4,0.1-0.9,0.5-1.4c-0.4-0.7-0.6-1.6-0.6-2.5
			c0-1.2,0.4-2.3,1.1-3.2c0.8-1,1.9-1.6,3.2-1.6c0.4,0,0.8,0.1,1.2,0.2c0.3-0.1,0.6-0.1,0.9-0.1c0.7,0,1.4,0.3,1.9,0.8
			c0.4,0.5,0.7,1.1,0.7,1.8v4.3c0,1.8-0.8,2.8-1.4,3.4C41.6,13.5,40.5,13.9,39.2,13.9"/>
		<path fill="#0658A3" d="M50.2,11.7c-0.6,0-1.2-0.2-1.7-0.6c-0.5,0.4-1.1,0.6-1.7,0.6c-0.7,0-1.4-0.3-1.9-0.8
			c-0.4-0.5-0.7-1.1-0.7-1.8v-4c0-0.7,0.2-1.3,0.7-1.8c0.5-0.5,1.2-0.8,1.9-0.8c0.3,0,0.6,0,0.8,0.1c0.4-0.1,0.8-0.2,1.3-0.2
			c1.1,0,2,0.4,2.7,1c0.5,0.5,1.1,1.4,1.1,2.8v2.9c0,0.7-0.2,1.3-0.7,1.8C51.6,11.4,50.9,11.7,50.2,11.7"/>
		<path fill="#0658A3" d="M55.8,11.7c-0.6,0-1.2-0.2-1.7-0.6c-0.5,0.4-1.1,0.6-1.7,0.6c-0.7,0-1.4-0.3-1.9-0.8
			c-0.4-0.5-0.7-1.1-0.7-1.8V2.7c0-0.7,0.2-1.3,0.7-1.8C50.9,0.3,51.6,0,52.3,0c0.7,0,1.4,0.3,1.9,0.8c0.4,0.4,0.6,1,0.7,1.5
			c0.9,0.1,1.7,0.4,2.3,1c0.5,0.5,1.1,1.4,1.1,2.8v2.9c0,0.7-0.2,1.3-0.7,1.8C57.2,11.4,56.5,11.7,55.8,11.7"/>
		<path fill="#0658A3" d="M59.6,11.8c-1.2,0-2.3-0.4-3-1.1C55.8,10,55.4,9,55.4,7.8V5.1c0-0.7,0.2-1.3,0.7-1.8
			c0.5-0.5,1.2-0.8,1.9-0.8c0.6,0,1.2,0.2,1.7,0.6c0,0,0,0,0.1,0c0.1-0.5,0.3-1,0.7-1.4c0.5-0.5,1.1-0.8,1.8-0.8
			c0.7,0,1.3,0.3,1.8,0.7c0.5,0.5,0.8,1.1,0.8,1.8c0,0.6-0.2,1.2-0.5,1.7c-0.1,0.2-0.2,0.3-0.4,0.4v2.3c0,1.2-0.4,2.2-1.2,2.9
			C61.9,11.4,60.9,11.8,59.6,11.8"/>
		<path fill="#0658A3" d="M68.9,11.8c-0.4,0-0.8-0.1-1.2-0.2c-0.3,0.1-0.5,0.1-0.9,0.1c-0.7,0-1.4-0.3-1.9-0.8
			c-0.4-0.5-0.7-1.1-0.7-1.8V2.7c0-0.7,0.2-1.3,0.7-1.8C65.4,0.3,66,0,66.8,0c0.7,0,1.4,0.3,1.9,0.8c0.4,0.4,0.6,1,0.7,1.5
			c1.2,0.1,2.2,0.7,2.9,1.7c0.6,0.9,0.9,1.9,0.9,3.1c0,1.2-0.4,2.2-1.1,3.1C71.3,11.3,70.2,11.8,68.9,11.8"/>
		<path fill="#0658A3" d="M74.9,5.5c-0.2,0-0.4,0-0.6-0.1c-0.1,0-0.2-0.1-0.3-0.1c0,0-0.1,0-0.1,0c0,0,0,0-0.1,0l-1.1-0.4
			c-1-0.4-1.6-1.3-1.6-2.3c0-0.6,0.2-1.1,0.6-1.6C72.1,0.3,72.8,0,73.5,0c0.4,0,0.7,0.1,1.1,0.2l1.2,0.5c0,0,0.1,0,0.1,0.1l0.1,0
			c0,0,0.1,0,0.1,0c0.8,0.4,1.2,1.2,1.2,2c0,0.6-0.2,1.1-0.5,1.5C76.4,5.1,75.7,5.5,74.9,5.5"/>
		<path fill="#0658A3" d="M82,11.7c-0.6,0-1.2-0.2-1.7-0.6c-0.5,0.4-1.1,0.6-1.7,0.6c-0.7,0-1.4-0.3-1.9-0.8
			C76.2,10.4,76,9.8,76,9.1v-4c0-0.7,0.2-1.3,0.7-1.8c0.5-0.5,1.2-0.8,1.9-0.8c0.3,0,0.6,0,0.8,0.1c0.4-0.1,0.8-0.2,1.3-0.2
			c1.1,0,2,0.4,2.7,1c0.5,0.5,1.1,1.4,1.1,2.8v2.9c0,0.7-0.2,1.3-0.7,1.8C83.4,11.4,82.7,11.7,82,11.7"/>
		<path fill="#0658A3" d="M87.8,11.7c-0.7,0-1.4-0.3-1.9-0.8c-0.4-0.5-0.7-1.1-0.7-1.8V7c-0.1-0.1-0.2-0.1-0.2-0.2
			c-0.5-0.5-0.8-1.1-0.8-1.8c0-0.7,0.3-1.3,0.8-1.8C85,3.1,85.1,3,85.2,3c0.1-0.5,0.3-1,0.6-1.4c0.5-0.5,1.2-0.8,1.9-0.8
			c0.7,0,1.4,0.3,1.9,0.8C90,2,90.2,2.4,90.3,2.8C90.4,2.9,90.5,3,90.5,3c0.6,0.5,0.9,1.1,0.9,1.9c0,0.8-0.3,1.4-0.8,1.9
			C90.5,7,90.4,7,90.3,7.1v2c0,0.7-0.2,1.3-0.7,1.8C89.2,11.4,88.5,11.7,87.8,11.7"/>
		<path fill="#0658A3" d="M91.8,11.8c-1.2,0-2.3-0.5-3.1-1.4c-0.8-0.9-1.2-2-1.2-3.3c0-1.3,0.4-2.4,1.2-3.2c0.8-1,1.9-1.5,3.1-1.5
			c0.4,0,0.9,0.1,1.3,0.2c0.3-0.1,0.6-0.1,0.9-0.1c1,0,1.9,0.5,2.3,1.4c0.2,0.4,0.3,0.8,0.3,1.4v3.7c0,0.6-0.1,1-0.2,1.4
			c0,0,0,0,0,0c-0.4,0.9-1.3,1.4-2.3,1.4c-0.4,0-0.7-0.1-0.9-0.2C92.6,11.7,92.2,11.8,91.8,11.8"/>
		<path fill="#0658A3" d="M96.7,13.9c-0.9,0-1.5-0.4-1.8-0.7c-0.5-0.5-0.8-1.1-0.8-1.8c0-0.4,0.1-0.8,0.2-1.1l0.4-0.9L93.3,6
			c0-0.1-0.1-0.2-0.1-0.3c-0.1-0.3-0.1-0.5-0.1-0.8c0-0.7,0.3-1.4,0.9-1.9c0.5-0.4,1-0.6,1.6-0.6c0.7,0,1.3,0.3,1.8,0.7
			c0.5-0.5,1.1-0.7,1.8-0.7c0.6,0,1.2,0.2,1.6,0.6c0.6,0.5,0.9,1.1,0.9,1.9c0,0.4-0.1,0.8-0.2,1.1l-2.5,6.1
			c-0.2,0.4-0.4,0.8-0.7,1.1C97.9,13.7,97.3,13.9,96.7,13.9"/>
		<path fill="#0658A3" d="M110.7,11.7c-0.6,0-1.2-0.2-1.6-0.6c-0.5,0.4-1,0.6-1.6,0.6c-0.6,0-1.2-0.2-1.6-0.6
			c-0.4,0.4-1,0.6-1.6,0.6c-0.7,0-1.4-0.3-1.9-0.8c-0.4-0.5-0.7-1.1-0.7-1.8v-4c0-0.7,0.2-1.3,0.7-1.8c0.5-0.5,1.2-0.8,1.9-0.8
			c0.3,0,0.6,0,0.9,0.1c0.4-0.1,0.8-0.2,1.2-0.2c0.6,0,1.1,0.1,1.6,0.3c0.5-0.2,1-0.3,1.5-0.3c1.4,0,2.3,0.6,2.8,1
			c0.5,0.5,1.1,1.4,1.1,2.8v2.9c0,0.7-0.2,1.3-0.7,1.8C112.1,11.4,111.5,11.7,110.7,11.7"/>
		<path fill="#0658A3" d="M119.1,6.9c0-1.1-0.4-2.2-1.2-3c-0.9-1-2-1.5-3.3-1.5c-1.3,0-2.4,0.5-3.3,1.5c-0.8,0.9-1.2,2-1.2,3.2
			c0,1.3,0.4,2.5,1.3,3.3c0.1,0.1,0.3,0.3,0.4,0.4c0,0.1,0,0.2,0,0.3c0,0.7,0.3,1.3,0.8,1.8c0.5,0.5,1.1,0.8,1.8,0.8
			c0.7,0,1.3-0.3,1.8-0.8c0.4-0.4,0.7-1,0.7-1.6c0.1,0,0.2-0.1,0.3-0.1c1.6-0.8,1.8-1.9,1.8-2.5c0-0.2,0-0.5-0.1-0.7
			C119,7.7,119.1,7.3,119.1,6.9"/>
		<path fill="#FFFFFF" d="M1.8,9.1V3.3C1.8,3,1.9,2.8,2,2.7c0.1-0.1,0.3-0.2,0.6-0.2h1.7c1.2,0,2,0.3,2.7,1c0.6,0.7,1,1.6,1,2.8
			c0,1.1-0.3,2-1,2.6c-0.6,0.6-1.5,1-2.6,1H2.6c-0.2,0-0.4-0.1-0.5-0.2C1.9,9.5,1.8,9.3,1.8,9.1 M3.4,3.9v4.5h1
			c0.6,0,1.1-0.2,1.5-0.7c0.3-0.4,0.5-0.9,0.5-1.6c0-0.7-0.2-1.2-0.5-1.6C5.5,4.1,5,3.9,4.3,3.9H3.4z"/>
		<path fill="#FFFFFF" d="M8.6,9.1v-4c0-0.2,0.1-0.4,0.2-0.6C9,4.3,9.2,4.3,9.4,4.3c0.2,0,0.4,0.1,0.5,0.2c0.1,0.2,0.2,0.4,0.2,0.6
			v4c0,0.2-0.1,0.4-0.2,0.6C9.8,9.8,9.6,9.9,9.4,9.9C9.2,9.9,9,9.8,8.8,9.7C8.7,9.5,8.6,9.3,8.6,9.1 M8.7,3c0-0.2,0.1-0.4,0.2-0.5
			C9,2.4,9.2,2.3,9.4,2.3c0.2,0,0.4,0.1,0.5,0.2c0.1,0.1,0.2,0.3,0.2,0.5c0,0.2-0.1,0.4-0.2,0.5C9.8,3.7,9.6,3.8,9.4,3.8
			C9.2,3.8,9,3.7,8.9,3.6C8.7,3.4,8.7,3.2,8.7,3 M8.7,11c0-0.2,0.1-0.4,0.2-0.5c0.1-0.1,0.3-0.2,0.5-0.2c0.2,0,0.4,0.1,0.5,0.2
			c0.1,0.1,0.2,0.3,0.2,0.5c0,0.2-0.1,0.4-0.2,0.5c-0.1,0.1-0.3,0.2-0.5,0.2c-0.2,0-0.4-0.1-0.5-0.2C8.7,11.4,8.7,11.2,8.7,11"/>
		<path fill="#FFFFFF" d="M10.7,7.8V5.1c0-0.2,0.1-0.4,0.2-0.6c0.1-0.2,0.3-0.2,0.5-0.2c0.2,0,0.4,0.1,0.5,0.2
			c0.1,0.2,0.2,0.4,0.2,0.6v2.7c0,0.3,0.1,0.5,0.3,0.7c0.2,0.2,0.4,0.3,0.7,0.3c0.3,0,0.5-0.1,0.7-0.3c0.2-0.2,0.3-0.4,0.3-0.7V5.1
			c0-0.2,0.1-0.4,0.2-0.6c0.1-0.2,0.3-0.2,0.5-0.2c0.2,0,0.4,0.1,0.5,0.2c0.1,0.2,0.2,0.4,0.2,0.6v2.7c0,0.7-0.2,1.2-0.6,1.6
			c-0.4,0.4-1,0.6-1.8,0.6c-0.8,0-1.4-0.2-1.8-0.6C10.9,9,10.7,8.5,10.7,7.8"/>
		<path fill="#FFFFFF" d="M24.7,2.7v6.4c0,0.2-0.1,0.4-0.2,0.6c-0.1,0.2-0.3,0.2-0.5,0.2c-0.4,0-0.7-0.2-0.7-0.6
			c-0.1,0.2-0.3,0.4-0.6,0.5c-0.3,0.1-0.5,0.2-0.8,0.2c-0.7,0-1.3-0.3-1.8-0.9c-0.4-0.5-0.7-1.2-0.7-1.9c0-0.8,0.2-1.5,0.6-2
			c0.4-0.6,1-0.9,1.8-0.9c0.3,0,0.5,0,0.8,0.1c0.2,0.1,0.5,0.2,0.7,0.4v-2c0-0.2,0.1-0.5,0.2-0.6c0.1-0.2,0.3-0.2,0.5-0.2
			c0.2,0,0.4,0.1,0.5,0.2C24.6,2.2,24.7,2.4,24.7,2.7 M23.2,7c0-0.4-0.1-0.7-0.3-1c-0.2-0.3-0.5-0.5-0.9-0.5c-0.4,0-0.6,0.2-0.9,0.5
			c-0.2,0.3-0.3,0.6-0.3,1c0,0.4,0.1,0.7,0.3,1c0.2,0.3,0.5,0.5,0.9,0.5c0.4,0,0.7-0.2,0.9-0.5C23.1,7.8,23.2,7.5,23.2,7"/>
		<path fill="#FFFFFF" d="M30.5,5.2v3.7c0,0.3,0,0.5-0.1,0.6c-0.1,0.2-0.3,0.4-0.6,0.4c-0.2,0-0.4-0.1-0.5-0.2
			c-0.1-0.1-0.2-0.3-0.2-0.5c-0.2,0.2-0.4,0.4-0.7,0.5c-0.2,0.1-0.5,0.2-0.8,0.2c-0.7,0-1.3-0.3-1.8-0.8c-0.5-0.5-0.7-1.2-0.7-2.1
			c0-0.8,0.2-1.5,0.7-2.1c0.5-0.6,1.1-0.8,1.8-0.8c0.3,0,0.6,0.1,0.8,0.2c0.2,0.1,0.5,0.3,0.6,0.5c0-0.2,0.1-0.3,0.2-0.5
			c0.1-0.1,0.3-0.2,0.5-0.2c0.3,0,0.5,0.1,0.6,0.3C30.5,4.7,30.5,4.9,30.5,5.2 M26.7,7.1c0,0.4,0.1,0.7,0.3,1
			c0.2,0.3,0.5,0.5,0.9,0.5c0.4,0,0.7-0.2,0.9-0.5c0.2-0.3,0.3-0.6,0.3-1c0-0.4-0.1-0.7-0.3-1c-0.2-0.3-0.5-0.5-0.9-0.5
			c-0.4,0-0.7,0.2-0.9,0.5C26.8,6.4,26.7,6.7,26.7,7.1"/>
		<path fill="#FFFFFF" d="M27.4,1.9l1.2,0.5l0.1,0C28.9,2.6,29,2.7,29,2.9c0,0.2-0.1,0.4-0.2,0.5c-0.1,0.2-0.2,0.2-0.4,0.2
			c-0.1,0-0.1,0-0.2,0c-0.1,0-0.1-0.1-0.2-0.1l-1.2-0.5c-0.3-0.1-0.4-0.3-0.4-0.6c0-0.1,0.1-0.3,0.2-0.4c0.1-0.1,0.2-0.2,0.4-0.2
			C27.1,1.8,27.3,1.9,27.4,1.9"/>
		<path fill="#FFFFFF" d="M31.4,9.1v-4c0-0.2,0.1-0.4,0.2-0.6c0.1-0.2,0.3-0.2,0.5-0.2c0.4,0,0.6,0.2,0.7,0.5
			c0.3-0.4,0.8-0.6,1.4-0.6c0.6,0,1.1,0.2,1.5,0.5c0.4,0.4,0.6,0.8,0.6,1.5v2.9c0,0.2-0.1,0.4-0.2,0.6c-0.1,0.2-0.3,0.2-0.5,0.2
			c-0.2,0-0.4-0.1-0.5-0.2c-0.1-0.2-0.2-0.4-0.2-0.6V6.5c0-0.3-0.1-0.6-0.3-0.8c-0.2-0.2-0.4-0.3-0.7-0.3c-0.3,0-0.5,0.1-0.7,0.3
			c-0.2,0.2-0.3,0.4-0.3,0.7v2.6c0,0.2-0.1,0.4-0.2,0.6c-0.1,0.2-0.3,0.2-0.5,0.2c-0.2,0-0.4-0.1-0.5-0.2
			C31.4,9.5,31.4,9.3,31.4,9.1"/>
		<path fill="#FFFFFF" d="M42,5.1v4.3c0,0.9-0.3,1.5-0.8,2c-0.5,0.5-1.2,0.7-2.1,0.7c-0.4,0-0.9-0.1-1.4-0.2c-0.6-0.2-1-0.5-1-0.9
			c0-0.1,0.1-0.3,0.2-0.4c0.1-0.1,0.3-0.2,0.4-0.2c0.1,0,0.4,0.1,0.8,0.2c0.4,0.1,0.8,0.2,1.1,0.2c0.4,0,0.7-0.1,0.9-0.3
			c0.2-0.2,0.4-0.5,0.4-0.9V9.3C40.2,9.7,39.7,10,39,10c-0.7,0-1.3-0.3-1.7-0.9c-0.4-0.5-0.6-1.2-0.6-2c0-0.8,0.2-1.5,0.7-2
			c0.5-0.6,1.1-0.9,1.8-0.9c0.3,0,0.5,0.1,0.8,0.2c0.3,0.1,0.4,0.3,0.6,0.5c0.1-0.4,0.3-0.6,0.7-0.6c0.2,0,0.4,0.1,0.5,0.2
			C42,4.7,42,4.9,42,5.1 M40.5,7.1c0-0.4-0.1-0.8-0.3-1c-0.2-0.3-0.5-0.5-0.9-0.5c-0.4,0-0.6,0.2-0.9,0.5c-0.2,0.3-0.3,0.6-0.3,1
			c0,0.4,0.1,0.8,0.3,1.1c0.2,0.3,0.5,0.4,0.9,0.4c0.4,0,0.7-0.2,0.9-0.5C40.5,7.9,40.5,7.5,40.5,7.1"/>
		<path fill="#FFFFFF" d="M46,9.1v-4c0-0.2,0.1-0.4,0.2-0.6c0.1-0.2,0.3-0.2,0.5-0.2c0.4,0,0.6,0.2,0.7,0.5c0.3-0.4,0.8-0.6,1.4-0.6
			c0.6,0,1.1,0.2,1.5,0.5c0.4,0.4,0.6,0.8,0.6,1.5v2.9c0,0.2-0.1,0.4-0.2,0.6c-0.1,0.2-0.3,0.2-0.5,0.2c-0.2,0-0.4-0.1-0.5-0.2
			c-0.1-0.2-0.2-0.4-0.2-0.6V6.5c0-0.3-0.1-0.6-0.3-0.8c-0.2-0.2-0.4-0.3-0.7-0.3c-0.3,0-0.5,0.1-0.7,0.3c-0.2,0.2-0.3,0.4-0.3,0.7
			v2.6c0,0.2-0.1,0.4-0.2,0.6c-0.1,0.2-0.3,0.2-0.5,0.2c-0.2,0-0.4-0.1-0.5-0.2C46.1,9.5,46,9.3,46,9.1"/>
		<path fill="#FFFFFF" d="M51.6,9.1V2.7c0-0.2,0.1-0.4,0.2-0.6c0.1-0.2,0.3-0.2,0.5-0.2c0.2,0,0.4,0.1,0.5,0.2
			c0.1,0.2,0.2,0.4,0.2,0.6v2c0.2-0.2,0.4-0.3,0.6-0.4c0.2-0.1,0.5-0.1,0.8-0.1c0.6,0,1.1,0.2,1.5,0.5c0.4,0.4,0.6,0.8,0.6,1.5v2.9
			c0,0.2-0.1,0.4-0.2,0.6c-0.1,0.2-0.3,0.2-0.5,0.2c-0.2,0-0.4-0.1-0.5-0.2C55.1,9.5,55,9.3,55,9.1V6.5c0-0.3-0.1-0.6-0.3-0.8
			c-0.2-0.2-0.4-0.3-0.7-0.3c-0.3,0-0.5,0.1-0.7,0.3c-0.2,0.2-0.3,0.4-0.3,0.7v2.6c0,0.2-0.1,0.4-0.2,0.6c-0.1,0.2-0.3,0.2-0.5,0.2
			c-0.2,0-0.4-0.1-0.5-0.2C51.7,9.5,51.6,9.3,51.6,9.1"/>
		<path fill="#FFFFFF" d="M62,4.7c0,0.1,0.1,0.2,0.1,0.2c0,0.1,0,0.1,0,0.2v2.7c0,0.7-0.2,1.2-0.6,1.6c-0.4,0.4-1,0.6-1.8,0.6
			c-0.8,0-1.4-0.2-1.8-0.6c-0.4-0.4-0.6-0.9-0.6-1.6V5.1c0-0.2,0.1-0.4,0.2-0.6c0.1-0.2,0.3-0.2,0.5-0.2c0.2,0,0.4,0.1,0.5,0.2
			c0.1,0.2,0.2,0.4,0.2,0.6v2.7c0,0.3,0.1,0.5,0.3,0.7c0.2,0.2,0.4,0.3,0.7,0.3c0.3,0,0.5-0.1,0.7-0.3c0.2-0.2,0.3-0.4,0.3-0.7V5.1
			c0-0.2,0.1-0.4,0.2-0.6c0.1-0.2,0.3-0.2,0.5-0.2c0.1,0,0.2,0,0.2,0c0,0,0.1,0,0.2-0.1c0.1,0,0.1-0.1,0.2-0.1
			c-0.1-0.1-0.2-0.2-0.3-0.3c-0.1-0.1-0.1-0.3-0.1-0.4c0-0.2,0.1-0.3,0.2-0.5c0.1-0.1,0.3-0.2,0.5-0.2c0.2,0,0.4,0.1,0.5,0.2
			C62.9,3.1,63,3.2,63,3.4c0,0.2-0.1,0.5-0.2,0.7c-0.1,0.2-0.3,0.4-0.6,0.5L62,4.7z"/>
		<path fill="#FFFFFF" d="M66,9.1V2.7c0-0.2,0.1-0.4,0.2-0.6c0.1-0.2,0.3-0.2,0.5-0.2c0.2,0,0.4,0.1,0.5,0.2
			c0.1,0.2,0.2,0.4,0.2,0.6v2c0.4-0.3,0.9-0.5,1.4-0.5c0.8,0,1.4,0.3,1.8,0.9c0.4,0.6,0.6,1.2,0.6,2c0,0.7-0.2,1.4-0.7,1.9
			c-0.5,0.6-1.1,0.9-1.8,0.9c-0.3,0-0.5-0.1-0.8-0.2c-0.2-0.1-0.4-0.3-0.6-0.5c-0.1,0.2-0.1,0.4-0.3,0.5c-0.1,0.1-0.3,0.2-0.5,0.2
			c-0.2,0-0.4-0.1-0.5-0.2C66.1,9.5,66,9.3,66,9.1 M67.5,7c0,0.4,0.1,0.8,0.3,1c0.2,0.3,0.5,0.5,0.9,0.5c0.4,0,0.7-0.2,0.9-0.5
			c0.2-0.3,0.3-0.6,0.3-1c0-0.4-0.1-0.7-0.3-1c-0.2-0.3-0.5-0.5-0.9-0.5S68,5.7,67.8,6C67.6,6.3,67.5,6.6,67.5,7"/>
		<path fill="#FFFFFF" d="M76.9,5.2v3.7c0,0.3,0,0.5-0.1,0.6c-0.1,0.2-0.3,0.4-0.6,0.4c-0.2,0-0.4-0.1-0.5-0.2
			c-0.1-0.1-0.2-0.3-0.2-0.5c-0.2,0.2-0.4,0.4-0.7,0.5c-0.2,0.1-0.5,0.2-0.8,0.2c-0.7,0-1.3-0.3-1.8-0.8c-0.5-0.5-0.7-1.2-0.7-2.1
			c0-0.8,0.2-1.5,0.7-2.1c0.5-0.6,1.1-0.8,1.8-0.8c0.3,0,0.6,0.1,0.8,0.2c0.2,0.1,0.5,0.3,0.6,0.5c0-0.2,0.1-0.3,0.2-0.5
			c0.1-0.1,0.3-0.2,0.5-0.2c0.3,0,0.5,0.1,0.6,0.3C76.9,4.7,76.9,4.9,76.9,5.2 M73.1,7.1c0,0.4,0.1,0.7,0.3,1
			c0.2,0.3,0.5,0.5,0.9,0.5c0.4,0,0.7-0.2,0.9-0.5c0.2-0.3,0.3-0.6,0.3-1c0-0.4-0.1-0.7-0.3-1c-0.2-0.3-0.5-0.5-0.9-0.5
			c-0.4,0-0.7,0.2-0.9,0.5C73.2,6.4,73.1,6.7,73.1,7.1"/>
		<path fill="#FFFFFF" d="M73.9,1.9l1.2,0.5l0.1,0c0.2,0.1,0.3,0.2,0.3,0.4c0,0.2-0.1,0.4-0.2,0.5c-0.1,0.2-0.2,0.2-0.4,0.2
			c-0.1,0-0.1,0-0.2,0c-0.1,0-0.1-0.1-0.2-0.1l-1.2-0.5c-0.3-0.1-0.4-0.3-0.4-0.6c0-0.1,0.1-0.3,0.2-0.4c0.1-0.1,0.2-0.2,0.4-0.2
			C73.6,1.8,73.7,1.9,73.9,1.9"/>
		<path fill="#FFFFFF" d="M77.8,9.1v-4c0-0.2,0.1-0.4,0.2-0.6c0.1-0.2,0.3-0.2,0.5-0.2c0.4,0,0.6,0.2,0.7,0.5
			c0.3-0.4,0.8-0.6,1.4-0.6c0.6,0,1.1,0.2,1.5,0.5c0.4,0.4,0.6,0.8,0.6,1.5v2.9c0,0.2-0.1,0.4-0.2,0.6c-0.1,0.2-0.3,0.2-0.5,0.2
			c-0.2,0-0.4-0.1-0.5-0.2c-0.1-0.2-0.2-0.4-0.2-0.6V6.5c0-0.3-0.1-0.6-0.3-0.8c-0.2-0.2-0.4-0.3-0.7-0.3c-0.3,0-0.5,0.1-0.7,0.3
			c-0.2,0.2-0.3,0.4-0.3,0.7v2.6c0,0.2-0.1,0.4-0.2,0.6c-0.1,0.2-0.3,0.2-0.5,0.2c-0.2,0-0.4-0.1-0.5-0.2
			C77.9,9.5,77.8,9.3,77.8,9.1"/>
		<path fill="#FFFFFF" d="M87,9.1V5.6h-0.3c-0.2,0-0.4-0.1-0.5-0.2C86.1,5.3,86,5.2,86,5c0-0.2,0.1-0.3,0.2-0.5
			c0.1-0.1,0.3-0.2,0.5-0.2H87V3.4c0-0.2,0.1-0.4,0.2-0.6c0.1-0.2,0.3-0.2,0.5-0.2c0.2,0,0.4,0.1,0.5,0.2c0.1,0.2,0.2,0.4,0.2,0.6
			v0.9h0.4c0.2,0,0.4,0,0.5,0.1c0.1,0.1,0.2,0.3,0.2,0.5c0,0.2-0.1,0.4-0.2,0.5c-0.1,0.1-0.3,0.2-0.5,0.2h-0.4v3.4
			c0,0.2-0.1,0.4-0.2,0.6c-0.1,0.2-0.3,0.2-0.5,0.2c-0.2,0-0.4-0.1-0.5-0.2C87.1,9.5,87,9.3,87,9.1"/>
		<path fill="#FFFFFF" d="M94.6,5.2v3.7c0,0.3,0,0.5-0.1,0.6c-0.1,0.2-0.3,0.4-0.6,0.4c-0.2,0-0.4-0.1-0.5-0.2
			c-0.1-0.1-0.2-0.3-0.2-0.5c-0.2,0.2-0.4,0.4-0.7,0.5c-0.2,0.1-0.5,0.2-0.8,0.2c-0.7,0-1.3-0.3-1.8-0.8c-0.5-0.5-0.7-1.2-0.7-2.1
			c0-0.8,0.2-1.5,0.7-2.1c0.5-0.6,1.1-0.8,1.8-0.8c0.3,0,0.6,0.1,0.8,0.2c0.2,0.1,0.5,0.3,0.6,0.5c0-0.2,0.1-0.3,0.2-0.5
			c0.1-0.1,0.3-0.2,0.5-0.2c0.3,0,0.5,0.1,0.6,0.3C94.6,4.7,94.6,4.9,94.6,5.2 M90.8,7.1c0,0.4,0.1,0.7,0.3,1
			c0.2,0.3,0.5,0.5,0.9,0.5c0.4,0,0.7-0.2,0.9-0.5c0.2-0.3,0.3-0.6,0.3-1c0-0.4-0.1-0.7-0.3-1c-0.2-0.3-0.5-0.5-0.9-0.5
			c-0.4,0-0.7,0.2-0.9,0.5C90.9,6.4,90.8,6.7,90.8,7.1"/>
		<path fill="#FFFFFF" d="M96.6,9.4L95,5.3c0,0,0-0.1,0-0.1c0-0.1,0-0.2,0-0.2c0-0.2,0.1-0.3,0.2-0.5c0.2-0.1,0.3-0.2,0.5-0.2
			c0.4,0,0.6,0.2,0.7,0.5l1,2.8l1.1-2.8c0.1-0.3,0.4-0.5,0.7-0.5c0.2,0,0.3,0.1,0.5,0.2c0.2,0.1,0.2,0.3,0.2,0.5
			c0,0.2,0,0.3-0.1,0.4l-2.5,6.2c-0.1,0.2-0.2,0.3-0.3,0.4c-0.1,0.1-0.3,0.2-0.4,0.2c-0.2,0-0.4-0.1-0.6-0.2
			c-0.1-0.1-0.2-0.3-0.2-0.5c0-0.1,0-0.3,0.1-0.4L96.6,9.4z"/>
		<path fill="#FFFFFF" d="M103.5,9.1v-4c0-0.2,0.1-0.4,0.2-0.6c0.1-0.2,0.3-0.2,0.5-0.2c0.4,0,0.6,0.2,0.7,0.6
			c0.4-0.4,0.8-0.6,1.4-0.6c0.6,0,1.1,0.2,1.5,0.7c0.2-0.2,0.4-0.4,0.7-0.5c0.3-0.1,0.6-0.2,0.8-0.2c0.6,0,1.1,0.2,1.5,0.5
			c0.4,0.3,0.6,0.8,0.6,1.5v2.9c0,0.2-0.1,0.4-0.2,0.6c-0.1,0.2-0.3,0.2-0.5,0.2c-0.2,0-0.4-0.1-0.5-0.2C110,9.5,110,9.3,110,9.1
			V6.5c0-0.3-0.1-0.6-0.2-0.7c-0.2-0.2-0.4-0.3-0.6-0.3c-0.3,0-0.5,0.1-0.7,0.3c-0.2,0.2-0.2,0.4-0.2,0.7v2.6c0,0.2-0.1,0.4-0.2,0.6
			c-0.1,0.2-0.3,0.2-0.5,0.2c-0.2,0-0.4-0.1-0.5-0.2c-0.1-0.2-0.2-0.4-0.2-0.6V6.5c0-0.3-0.1-0.6-0.2-0.7c-0.2-0.2-0.4-0.3-0.6-0.3
			c-0.3,0-0.5,0.1-0.7,0.3c-0.1,0.2-0.2,0.4-0.2,0.7v2.6c0,0.2-0.1,0.4-0.2,0.6c-0.1,0.2-0.3,0.2-0.5,0.2c-0.2,0-0.4-0.1-0.5-0.2
			C103.6,9.5,103.5,9.3,103.5,9.1"/>
		<path fill="#FFFFFF" d="M116.6,7.6h-3.2c0,0.3,0.2,0.6,0.5,0.8c0.3,0.2,0.6,0.3,0.9,0.3c0.2,0,0.5-0.1,0.8-0.2
			c0.6-0.3,0.9-0.4,0.9-0.4c0.2,0,0.3,0.1,0.4,0.2c0.1,0.1,0.2,0.3,0.2,0.4c0,0.3-0.3,0.6-0.8,0.9c-0.5,0.3-1.1,0.4-1.7,0.4
			c-0.8,0-1.5-0.3-2-0.8c-0.5-0.5-0.8-1.2-0.8-2.1c0-0.8,0.3-1.5,0.8-2c0.5-0.6,1.1-0.9,1.9-0.9c0.8,0,1.4,0.3,1.9,0.9
			c0.5,0.6,0.7,1.2,0.7,1.8C117.3,7.4,117,7.6,116.6,7.6 M113.4,6.6h2.4c0-0.3-0.2-0.6-0.4-0.8c-0.2-0.2-0.5-0.3-0.8-0.3
			c-0.3,0-0.6,0.1-0.8,0.3C113.6,6,113.4,6.3,113.4,6.6"/>
		<path fill="#FFFFFF" d="M113.6,11.1c0-0.2,0.1-0.4,0.2-0.5c0.1-0.1,0.3-0.2,0.5-0.2c0.2,0,0.4,0.1,0.5,0.2
			c0.1,0.1,0.2,0.3,0.2,0.5c0,0.2-0.1,0.4-0.2,0.5c-0.1,0.1-0.3,0.2-0.5,0.2c-0.2,0-0.4-0.1-0.5-0.2
			C113.6,11.5,113.6,11.3,113.6,11.1"/>
	</g>
</g>
</svg>
