<!-- Generator: Adobe Illustrator 17.0.0, SVG Export Plug-In  -->
<svg version="1.1"
	 xmlns="http://www.w3.org/2000/svg" xmlns:xlink="http://www.w3.org/1999/xlink" xmlns:a="http://ns.adobe.com/AdobeSVGViewerExtensions/3.0/"
	 x="0px" y="0px" width="12.75px" height="15.302px" viewBox="0 0 12.75 15.302" enable-background="new 0 0 12.75 15.302"
	 xml:space="preserve">
<defs>
</defs>
<path fill="#FFFFFF" d="M6.375,2.552c-0.018,0-0.035,0.003-0.052,0.003L6.293,0L0.204,3.61l3.309,1.86l0.016,0.009l0,0l2.846,1.6
	L6.344,4.43c0.01,0,0.02-0.003,0.031-0.003c2.485,0,4.5,2.015,4.5,4.5s-2.015,4.5-4.5,4.5s-4.5-2.015-4.5-4.5
	c0-1.109,0.42-2.108,1.086-2.891L2.742,5.913L1.269,5.122C0.475,6.185,0,7.499,0,8.927c0,3.521,2.854,6.375,6.375,6.375
	s6.375-2.854,6.375-6.375S9.896,2.552,6.375,2.552z"/>
</svg>